<?xml version="1.0" standalone="no"?><svg xmlns="http://www.w3.org/2000/svg" viewBox="0 0 1440 320"><path fill="#5000CA" fill-opacity="1" d="M0,160L24,138.7C48,117,96,75,144,58.7C192,43,240,53,288,80C336,107,384,149,432,160C480,171,528,149,576,149.3C624,149,672,171,720,149.3C768,128,816,64,864,69.3C912,75,960,149,1008,160C1056,171,1104,117,1152,80C1200,43,1248,21,1296,16C1344,11,1392,21,1416,26.7L1440,32L1440,320L1416,320C1392,320,1344,320,1296,320C1248,320,1200,320,1152,320C1104,320,1056,320,1008,320C960,320,912,320,864,320C816,320,768,320,720,320C672,320,624,320,576,320C528,320,480,320,432,320C384,320,336,320,288,320C240,320,192,320,144,320C96,320,48,320,24,320L0,320Z"></path></svg>